ffmpeg version git-2026-04-19-de18feb Copyright (c) 2000-2026 the FFmpeg developers
  built with gcc 9 (Ubuntu 9.4.0-1ubuntu1~20.04.2)
  configuration: --enable-shared --enable-gpl --enable-libx264
  libavutil      60. 30.100 / 60. 30.100
  libavcodec     62. 30.100 / 62. 30.100
  libavformat    62. 13.102 / 62. 13.102
  libavdevice    62.  4.100 / 62.  4.100
  libavfilter    11. 15.101 / 11. 15.101
  libswscale      9.  7.100 /  9.  7.100
  libswresample   6.  4.100 /  6.  4.100
[in#0/x11grab @ 0x564c2789ec40] Stream #0: not enough frames to estimate rate; consider increasing probesize
Input #0, x11grab, from ':0.0+0,0':
  Duration: N/A, start: 1777439283.921255, bitrate: 3678192 kb/s
  Stream #0:0: Video: rawvideo (BGR[0] / 0x524742), bgr0, 2870x1602, 3678192 kb/s, 25 fps, 1000k tbr, 1000k tbn, start 1777439283.921255
Stream mapping:
  Stream #0:0 -> #0:0 (rawvideo (native) -> h264 (libx264))
[libx264 @ 0x564c278acf00] using cpu capabilities: MMX2 SSE2Fast SSSE3 SSE4.2 AVX FMA3 BMI2 AVX2
[libx264 @ 0x564c278acf00] profile High, level 5.0
[libx264 @ 0x564c278acf00] 264 - core 155 r2917 0a84d98 - H.264/MPEG-4 AVC codec - Copyleft 2003-2018 - http://www.videolan.org/x264.html - options: cabac=1 ref=1 deblock=1:0:0 analyse=0x3:0x113 me=hex subme=2 psy=1 psy_rd=1.00:0.00 mixed_ref=0 me_range=16 chroma_me=1 trellis=0 8x8dct=1 cqm=0 deadzone=21,11 fast_pskip=1 chroma_qp_offset=0 threads=6 lookahead_threads=2 sliced_threads=0 nr=0 decimate=1 interlaced=0 bluray_compat=0 constrained_intra=0 bframes=3 b_pyramid=2 b_adapt=1 b_bias=0 direct=1 weightb=1 open_gop=0 weightp=1 keyint=250 keyint_min=25 scenecut=40 intra_refresh=0 rc_lookahead=10 rc=crf mbtree=1 crf=23.0 qcomp=0.60 qpmin=0 qpmax=69 qpstep=4 ip_ratio=1.40 aq=1:1.00
Output #0, matroska, to '/home/lmy/catkin_ws/recordings_tmp/exp_10_point_v7/screen.mkv':
  Metadata:
    encoder         : Lavf62.13.102
  Stream #0:0: Video: h264 (H264 / 0x34363248), yuv420p(tv, progressive), 2870x1602, q=2-31, 25 fps, 1k tbn
    Metadata:
      encoder         : Lavc62.30.100 libx264
    Side data:
      CPB properties: bitrate max/min/avg: 0/0/0 buffer size: 0 vbv_delay: N/A
frame=    0 fps=0.0 q=0.0 size=       0KiB time=N/A bitrate=N/A speed=N/A elapsed=0:00:00.50    frame=    6 fps=6.0 q=28.0 size=       1KiB time=00:00:00.16 bitrate=  29.7kbits/s speed=0.16x elapsed=0:00:01.00    frame=   18 fps= 12 q=28.0 size=       1KiB time=00:00:00.64 bitrate=   7.4kbits/s speed=0.426x elapsed=0:00:01.50    frame=   31 fps= 15 q=28.0 size=       1KiB time=00:00:01.16 bitrate=   4.1kbits/s speed=0.58x elapsed=0:00:02.00    frame=   43 fps= 17 q=28.0 size=       1KiB time=00:00:01.64 bitrate=   2.9kbits/s speed=0.654x elapsed=0:00:02.50    frame=   56 fps= 19 q=28.0 size=       1KiB time=00:00:02.16 bitrate=   2.2kbits/s speed=0.718x elapsed=0:00:03.00    frame=   69 fps= 20 q=28.0 size=       1KiB time=00:00:02.68 bitrate=   1.8kbits/s speed=0.764x elapsed=0:00:03.50    frame=   81 fps= 20 q=28.0 size=       1KiB time=00:00:03.16 bitrate=   1.5kbits/s speed=0.788x elapsed=0:00:04.01    frame=   90 fps= 20 q=28.0 size=       1KiB time=00:00:03.52 bitrate=   1.4kbits/s speed=0.78x elapsed=0:00:04.51    frame=  104 fps= 21 q=28.0 size=       1KiB time=00:00:04.08 bitrate=   1.2kbits/s dup=0 drop=2 speed=0.814x elapsed=0:00:05.01    frame=  117 fps= 21 q=28.0 size=       1KiB time=00:00:04.68 bitrate=   1.0kbits/s dup=0 drop=2 speed=0.849x elapsed=0:00:05.51    frame=  129 fps= 21 q=28.0 size=     157KiB time=00:00:05.16 bitrate= 248.9kbits/s dup=0 drop=2 speed=0.858x elapsed=0:00:06.01    frame=  142 fps= 22 q=28.0 size=     157KiB time=00:00:05.68 bitrate= 226.1kbits/s dup=0 drop=2 speed=0.872x elapsed=0:00:06.51    frame=  154 fps= 22 q=28.0 size=     157KiB time=00:00:06.20 bitrate= 207.1kbits/s dup=0 drop=2 speed=0.883x elapsed=0:00:07.01    frame=  167 fps= 22 q=28.0 size=     157KiB time=00:00:06.68 bitrate= 192.3kbits/s dup=0 drop=2 speed=0.889x elapsed=0:00:07.51    frame=  179 fps= 22 q=28.0 size=     157KiB time=00:00:07.16 bitrate= 179.4kbits/s dup=0 drop=2 speed=0.893x elapsed=0:00:08.01    frame=  192 fps= 23 q=28.0 size=     157KiB time=00:00:07.68 bitrate= 167.2kbits/s dup=0 drop=2 speed=0.902x elapsed=0:00:08.51    frame=  204 fps= 23 q=28.0 size=     157KiB time=00:00:08.16 bitrate= 157.4kbits/s dup=0 drop=2 speed=0.905x elapsed=0:00:09.01    frame=  217 fps= 23 q=28.0 size=     157KiB time=00:00:08.72 bitrate= 147.3kbits/s dup=0 drop=2 speed=0.916x elapsed=0:00:09.52    frame=  229 fps= 23 q=28.0 size=     157KiB time=00:00:09.20 bitrate= 139.6kbits/s dup=0 drop=2 speed=0.918x elapsed=0:00:10.02    frame=  242 fps= 23 q=28.0 size=     157KiB time=00:00:09.72 bitrate= 132.1kbits/s dup=0 drop=2 speed=0.924x elapsed=0:00:10.52    frame=  254 fps= 23 q=28.0 size=     256KiB time=00:00:10.16 bitrate= 206.4kbits/s dup=0 drop=2 speed=0.922x elapsed=0:00:11.02    frame=  267 fps= 23 q=28.0 size=     256KiB time=00:00:10.68 bitrate= 196.4kbits/s dup=0 drop=2 speed=0.927x elapsed=0:00:11.52    frame=  280 fps= 23 q=28.0 size=     256KiB time=00:00:11.24 bitrate= 186.6kbits/s dup=0 drop=2 speed=0.935x elapsed=0:00:12.02    frame=  292 fps= 23 q=28.0 size=     256KiB time=00:00:11.72 bitrate= 178.9kbits/s dup=0 drop=2 speed=0.936x elapsed=0:00:12.52    frame=  304 fps= 23 q=28.0 size=     256KiB time=00:00:12.16 bitrate= 172.5kbits/s dup=0 drop=2 speed=0.934x elapsed=0:00:13.02    frame=  317 fps= 23 q=28.0 size=     256KiB time=00:00:12.68 bitrate= 165.4kbits/s dup=0 drop=2 speed=0.938x elapsed=0:00:13.52    frame=  329 fps= 23 q=28.0 size=     256KiB time=00:00:13.16 bitrate= 159.4kbits/s dup=0 drop=2 speed=0.938x elapsed=0:00:14.02    frame=  341 fps= 23 q=28.0 size=     256KiB time=00:00:13.68 bitrate= 153.3kbits/s dup=0 drop=2 speed=0.942x elapsed=0:00:14.52    frame=  354 fps= 24 q=28.0 size=     256KiB time=00:00:14.16 bitrate= 148.1kbits/s dup=0 drop=2 speed=0.942x elapsed=0:00:15.02    frame=  366 fps= 24 q=28.0 size=     256KiB time=00:00:14.64 bitrate= 143.2kbits/s dup=0 drop=2 speed=0.943x elapsed=0:00:15.52    frame=  379 fps= 24 q=28.0 size=     256KiB time=00:00:15.20 bitrate= 138.0kbits/s dup=0 drop=2 speed=0.949x elapsed=0:00:16.02    frame=  392 fps= 24 q=28.0 size=     256KiB time=00:00:15.68 bitrate= 133.7kbits/s dup=0 drop=2 speed=0.949x elapsed=0:00:16.52    frame=  404 fps= 24 q=28.0 size=     256KiB time=00:00:16.24 bitrate= 129.1kbits/s dup=0 drop=2 speed=0.954x elapsed=0:00:17.02    frame=  417 fps= 24 q=28.0 size=     256KiB time=00:00:16.72 bitrate= 125.4kbits/s dup=0 drop=2 speed=0.954x elapsed=0:00:17.52    frame=  429 fps= 24 q=28.0 size=     256KiB time=00:00:17.16 bitrate= 122.2kbits/s dup=0 drop=2 speed=0.952x elapsed=0:00:18.02    frame=  442 fps= 24 q=28.0 size=     256KiB time=00:00:17.68 bitrate= 118.6kbits/s dup=0 drop=2 speed=0.954x elapsed=0:00:18.52    frame=  454 fps= 24 q=28.0 size=     256KiB time=00:00:18.16 bitrate= 115.5kbits/s dup=0 drop=2 speed=0.954x elapsed=0:00:19.02    frame=  467 fps= 24 q=28.0 size=     256KiB time=00:00:18.72 bitrate= 112.0kbits/s dup=0 drop=2 speed=0.959x elapsed=0:00:19.52    frame=  480 fps= 24 q=28.0 size=     256KiB time=00:00:19.20 bitrate= 109.2kbits/s dup=0 drop=2 speed=0.959x elapsed=0:00:20.02    frame=  492 fps= 24 q=28.0 size=     256KiB time=00:00:19.72 bitrate= 106.3kbits/s dup=0 drop=2 speed=0.961x elapsed=0:00:20.53    frame=  505 fps= 24 q=28.0 size=     512KiB time=00:00:20.20 bitrate= 207.6kbits/s dup=0 drop=2 speed=0.961x elapsed=0:00:21.03    frame=  517 fps= 24 q=28.0 size=     512KiB time=00:00:20.72 bitrate= 202.4kbits/s dup=0 drop=2 speed=0.962x elapsed=0:00:21.53    frame=  530 fps= 24 q=28.0 size=     512KiB time=00:00:21.20 bitrate= 197.8kbits/s dup=0 drop=2 speed=0.962x elapsed=0:00:22.03    frame=  542 fps= 24 q=28.0 size=     512KiB time=00:00:21.68 bitrate= 193.5kbits/s dup=0 drop=2 speed=0.962x elapsed=0:00:22.53    frame=  555 fps= 24 q=28.0 size=     512KiB time=00:00:22.20 bitrate= 188.9kbits/s dup=0 drop=2 speed=0.964x elapsed=0:00:23.03    frame=  567 fps= 24 q=28.0 size=     512KiB time=00:00:22.68 bitrate= 184.9kbits/s dup=0 drop=2 speed=0.964x elapsed=0:00:23.53    frame=  580 fps= 24 q=28.0 size=     512KiB time=00:00:23.24 bitrate= 180.5kbits/s dup=0 drop=2 speed=0.967x elapsed=0:00:24.03    frame=  592 fps= 24 q=28.0 size=     512KiB time=00:00:23.68 bitrate= 177.1kbits/s dup=0 drop=2 speed=0.965x elapsed=0:00:24.53    frame=  605 fps= 24 q=28.0 size=     512KiB time=00:00:24.20 bitrate= 173.3kbits/s dup=0 drop=2 speed=0.967x elapsed=0:00:25.03    frame=  617 fps= 24 q=28.0 size=     512KiB time=00:00:24.72 bitrate= 169.7kbits/s dup=0 drop=2 speed=0.968x elapsed=0:00:25.53    frame=  629 fps= 24 q=28.0 size=     768KiB time=00:00:25.20 bitrate= 249.7kbits/s dup=0 drop=2 speed=0.968x elapsed=0:00:26.03    frame=  642 fps= 24 q=28.0 size=     768KiB time=00:00:25.68 bitrate= 245.0kbits/s dup=0 drop=2 speed=0.968x elapsed=0:00:26.53    frame=  655 fps= 24 q=28.0 size=     768KiB time=00:00:26.20 bitrate= 240.1kbits/s dup=0 drop=2 speed=0.969x elapsed=0:00:27.03    frame=  667 fps= 24 q=28.0 size=     768KiB time=00:00:26.68 bitrate= 235.8kbits/s dup=0 drop=2 speed=0.969x elapsed=0:00:27.53    frame=  680 fps= 24 q=28.0 size=     768KiB time=00:00:27.20 bitrate= 231.3kbits/s dup=0 drop=2 speed=0.97x elapsed=0:00:28.04    frame=  693 fps= 24 q=28.0 size=     768KiB time=00:00:27.76 bitrate= 226.6kbits/s dup=0 drop=2 speed=0.973x elapsed=0:00:28.54    frame=  705 fps= 24 q=28.0 size=     768KiB time=00:00:28.20 bitrate= 223.1kbits/s dup=0 drop=2 speed=0.971x elapsed=0:00:29.04    frame=  718 fps= 24 q=28.0 size=     768KiB time=00:00:28.76 bitrate= 218.8kbits/s dup=0 drop=2 speed=0.973x elapsed=0:00:29.54    frame=  730 fps= 24 q=28.0 size=     768KiB time=00:00:29.24 bitrate= 215.2kbits/s dup=0 drop=2 speed=0.973x elapsed=0:00:30.04    frame=  742 fps= 24 q=28.0 size=     768KiB time=00:00:29.68 bitrate= 212.0kbits/s dup=0 drop=2 speed=0.972x elapsed=0:00:30.54    frame=  755 fps= 24 q=28.0 size=     768KiB time=00:00:30.20 bitrate= 208.3kbits/s dup=0 drop=2 speed=0.973x elapsed=0:00:31.05    frame=  767 fps= 24 q=28.0 size=     768KiB time=00:00:30.68 bitrate= 205.1kbits/s dup=0 drop=2 speed=0.972x elapsed=0:00:31.55    frame=  780 fps= 24 q=28.0 size=     768KiB time=00:00:31.20 bitrate= 201.6kbits/s dup=0 drop=2 speed=0.973x elapsed=0:00:32.05    frame=  792 fps= 24 q=28.0 size=     768KiB time=00:00:31.68 bitrate= 198.6kbits/s dup=0 drop=2 speed=0.973x elapsed=0:00:32.55    frame=  805 fps= 24 q=28.0 size=     768KiB time=00:00:32.20 bitrate= 195.4kbits/s dup=0 drop=2 speed=0.974x elapsed=0:00:33.05    frame=  818 fps= 24 q=28.0 size=     768KiB time=00:00:32.72 bitrate= 192.3kbits/s dup=0 drop=2 speed=0.975x elapsed=0:00:33.55    frame=  830 fps= 24 q=28.0 size=     768KiB time=00:00:33.20 bitrate= 189.5kbits/s dup=0 drop=2 speed=0.975x elapsed=0:00:34.05    frame=  843 fps= 24 q=28.0 size=     768KiB time=00:00:33.72 bitrate= 186.6kbits/s dup=0 drop=2 speed=0.976x elapsed=0:00:34.55    frame=  855 fps= 24 q=28.0 size=     768KiB time=00:00:34.20 bitrate= 184.0kbits/s dup=0 drop=2 speed=0.976x elapsed=0:00:35.05    frame=  868 fps= 24 q=28.0 size=     768KiB time=00:00:34.76 bitrate= 181.0kbits/s dup=0 drop=2 speed=0.978x elapsed=0:00:35.55    frame=  880 fps= 24 q=28.0 size=    1024KiB time=00:00:35.20 bitrate= 238.3kbits/s dup=0 drop=2 speed=0.976x elapsed=0:00:36.05    frame=  893 fps= 24 q=28.0 size=    1024KiB time=00:00:35.72 bitrate= 234.8kbits/s dup=0 drop=2 speed=0.977x elapsed=0:00:36.55    frame=  905 fps= 24 q=28.0 size=    1024KiB time=00:00:36.20 bitrate= 231.7kbits/s dup=0 drop=2 speed=0.977x elapsed=0:00:37.05    frame=  918 fps= 24 q=28.0 size=    1024KiB time=00:00:36.72 bitrate= 228.4kbits/s dup=0 drop=2 speed=0.978x elapsed=0:00:37.55    frame=  930 fps= 24 q=28.0 size=    1024KiB time=00:00:37.24 bitrate= 225.3kbits/s dup=0 drop=2 speed=0.978x elapsed=0:00:38.05    frame=  943 fps= 24 q=28.0 size=    1024KiB time=00:00:37.76 bitrate= 222.2kbits/s dup=0 drop=2 speed=0.979x elapsed=0:00:38.55    frame=  955 fps= 24 q=28.0 size=    1024KiB time=00:00:38.20 bitrate= 219.6kbits/s dup=0 drop=2 speed=0.978x elapsed=0:00:39.06    frame=  968 fps= 24 q=28.0 size=    1024KiB time=00:00:38.72 bitrate= 216.6kbits/s dup=0 drop=2 speed=0.979x elapsed=0:00:39.56    frame=  980 fps= 24 q=28.0 size=    1024KiB time=00:00:39.24 bitrate= 213.8kbits/s dup=0 drop=2 speed=0.98x elapsed=0:00:40.06    frame=  993 fps= 24 q=28.0 size=    1024KiB time=00:00:39.76 bitrate= 211.0kbits/s dup=0 drop=2 speed=0.98x elapsed=0:00:40.56    frame= 1005 fps= 24 q=28.0 size=    1024KiB time=00:00:40.20 bitrate= 208.7kbits/s dup=0 drop=2 speed=0.979x elapsed=0:00:41.06    frame= 1018 fps= 24 q=28.0 size=    1024KiB time=00:00:40.76 bitrate= 205.8kbits/s dup=0 drop=2 speed=0.981x elapsed=0:00:41.56    frame= 1030 fps= 24 q=28.0 size=    1024KiB time=00:00:41.24 bitrate= 203.4kbits/s dup=0 drop=2 speed=0.98x elapsed=0:00:42.06    frame= 1043 fps= 25 q=28.0 size=    1024KiB time=00:00:41.76 bitrate= 200.9kbits/s dup=0 drop=2 speed=0.981x elapsed=0:00:42.56    frame= 1055 fps= 24 q=28.0 size=    1024KiB time=00:00:42.20 bitrate= 198.8kbits/s dup=0 drop=2 speed=0.98x elapsed=0:00:43.06    frame= 1068 fps= 25 q=28.0 size=    1024KiB time=00:00:42.72 bitrate= 196.4kbits/s dup=0 drop=2 speed=0.981x elapsed=0:00:43.56    frame= 1080 fps= 25 q=28.0 size=    1024KiB time=00:00:43.24 bitrate= 194.0kbits/s dup=0 drop=2 speed=0.981x elapsed=0:00:44.06    frame= 1093 fps= 25 q=28.0 size=    1024KiB time=00:00:43.72 bitrate= 191.9kbits/s dup=0 drop=2 speed=0.981x elapsed=0:00:44.56    frame= 1106 fps= 25 q=28.0 size=    1024KiB time=00:00:44.28 bitrate= 189.4kbits/s dup=0 drop=2 speed=0.983x elapsed=0:00:45.06    frame= 1118 fps= 25 q=28.0 size=    1024KiB time=00:00:44.72 bitrate= 187.6kbits/s dup=0 drop=2 speed=0.981x elapsed=0:00:45.56    frame= 1131 fps= 25 q=28.0 size=    1280KiB time=00:00:45.24 bitrate= 231.8kbits/s dup=0 drop=2 speed=0.982x elapsed=0:00:46.06    frame= 1143 fps= 25 q=28.0 size=    1280KiB time=00:00:45.72 bitrate= 229.3kbits/s dup=0 drop=2 speed=0.982x elapsed=0:00:46.56    frame= 1156 fps= 25 q=28.0 size=    1280KiB time=00:00:46.28 bitrate= 226.6kbits/s dup=0 drop=2 speed=0.983x elapsed=0:00:47.06    frame= 1168 fps= 25 q=28.0 size=    1280KiB time=00:00:46.72 bitrate= 224.4kbits/s dup=0 drop=2 speed=0.982x elapsed=0:00:47.56    frame= 1181 fps= 25 q=28.0 size=    1280KiB time=00:00:47.24 bitrate= 222.0kbits/s dup=0 drop=2 speed=0.983x elapsed=0:00:48.06    frame= 1193 fps= 25 q=28.0 size=    1280KiB time=00:00:47.76 bitrate= 219.6kbits/s dup=0 drop=2 speed=0.983x elapsed=0:00:48.56    frame= 1206 fps= 25 q=28.0 size=    1280KiB time=00:00:48.24 bitrate= 217.4kbits/s dup=0 drop=2 speed=0.983x elapsed=0:00:49.07    frame= 1218 fps= 25 q=28.0 size=    1280KiB time=00:00:48.72 bitrate= 215.2kbits/s dup=0 drop=2 speed=0.983x elapsed=0:00:49.57    frame= 1231 fps= 25 q=28.0 size=    1280KiB time=00:00:49.28 bitrate= 212.8kbits/s dup=0 drop=2 speed=0.984x elapsed=0:00:50.07    frame= 1243 fps= 25 q=28.0 size=    1280KiB time=00:00:49.72 bitrate= 210.9kbits/s dup=0 drop=2 speed=0.983x elapsed=0:00:50.57    frame= 1256 fps= 25 q=28.0 size=    1280KiB time=00:00:50.28 bitrate= 208.5kbits/s dup=0 drop=2 speed=0.984x elapsed=0:00:51.07    frame= 1268 fps= 25 q=28.0 size=    1280KiB time=00:00:50.76 bitrate= 206.6kbits/s dup=0 drop=2 speed=0.984x elapsed=0:00:51.57    frame= 1281 fps= 25 q=28.0 size=    1280KiB time=00:00:51.24 bitrate= 204.6kbits/s dup=0 drop=2 speed=0.984x elapsed=0:00:52.07    frame= 1293 fps= 25 q=28.0 size=    1280KiB time=00:00:51.72 bitrate= 202.7kbits/s dup=0 drop=2 speed=0.984x elapsed=0:00:52.57    frame= 1306 fps= 25 q=28.0 size=    1280KiB time=00:00:52.24 bitrate= 200.7kbits/s dup=0 drop=2 speed=0.984x elapsed=0:00:53.07    frame= 1318 fps= 25 q=28.0 size=    1280KiB time=00:00:52.72 bitrate= 198.9kbits/s dup=0 drop=2 speed=0.984x elapsed=0:00:53.57    frame= 1331 fps= 25 q=28.0 size=    1280KiB time=00:00:53.24 bitrate= 197.0kbits/s dup=0 drop=2 speed=0.984x elapsed=0:00:54.07    frame= 1344 fps= 25 q=28.0 size=    1280KiB time=00:00:53.76 bitrate= 195.0kbits/s dup=0 drop=2 speed=0.985x elapsed=0:00:54.58    frame= 1356 fps= 25 q=28.0 size=    1280KiB time=00:00:54.24 bitrate= 193.3kbits/s dup=0 drop=2 speed=0.985x elapsed=0:00:55.08    frame= 1368 fps= 25 q=28.0 size=    1280KiB time=00:00:54.76 bitrate= 191.5kbits/s dup=0 drop=2 speed=0.985x elapsed=0:00:55.58    frame= 1381 fps= 25 q=28.0 size=    1536KiB time=00:00:55.24 bitrate= 227.8kbits/s dup=0 drop=2 speed=0.985x elapsed=0:00:56.08    frame= 1394 fps= 25 q=28.0 size=    1536KiB time=00:00:55.80 bitrate= 225.5kbits/s dup=0 drop=2 speed=0.986x elapsed=0:00:56.58    frame= 1406 fps= 25 q=28.0 size=    1536KiB time=00:00:56.28 bitrate= 223.6kbits/s dup=0 drop=2 speed=0.986x elapsed=0:00:57.09    frame= 1418 fps= 25 q=28.0 size=    1536KiB time=00:00:56.72 bitrate= 221.8kbits/s dup=0 drop=2 speed=0.985x elapsed=0:00:57.59    frame= 1431 fps= 25 q=28.0 size=    1536KiB time=00:00:57.24 bitrate= 219.8kbits/s dup=0 drop=2 speed=0.985x elapsed=0:00:58.09    frame= 1444 fps= 25 q=28.0 size=    1536KiB time=00:00:57.76 bitrate= 217.8kbits/s dup=0 drop=2 speed=0.986x elapsed=0:00:58.59    frame= 1456 fps= 25 q=28.0 size=    1536KiB time=00:00:58.24 bitrate= 216.1kbits/s dup=0 drop=2 speed=0.986x elapsed=0:00:59.09    frame= 1469 fps= 25 q=28.0 size=    1536KiB time=00:00:58.76 bitrate= 214.1kbits/s dup=0 drop=2 speed=0.986x elapsed=0:00:59.59    frame= 1481 fps= 25 q=28.0 size=    1536KiB time=00:00:59.28 bitrate= 212.3kbits/s dup=0 drop=2 speed=0.986x elapsed=0:01:00.09    frame= 1494 fps= 25 q=28.0 size=    1536KiB time=00:00:59.76 bitrate= 210.6kbits/s dup=0 drop=2 speed=0.986x elapsed=0:01:00.59    frame= 1506 fps= 25 q=28.0 size=    1792KiB time=00:01:00.28 bitrate= 243.5kbits/s dup=0 drop=2 speed=0.987x elapsed=0:01:01.09    frame= 1519 fps= 25 q=28.0 size=    1792KiB time=00:01:00.76 bitrate= 241.6kbits/s dup=0 drop=2 speed=0.986x elapsed=0:01:01.59    frame= 1531 fps= 25 q=28.0 size=    1792KiB time=00:01:01.28 bitrate= 239.6kbits/s dup=0 drop=2 speed=0.987x elapsed=0:01:02.09    frame= 1544 fps= 25 q=28.0 size=    1792KiB time=00:01:01.80 bitrate= 237.5kbits/s dup=0 drop=2 speed=0.987x elapsed=0:01:02.59    frame= 1556 fps= 25 q=28.0 size=    1792KiB time=00:01:02.24 bitrate= 235.9kbits/s dup=0 drop=2 speed=0.986x elapsed=0:01:03.09    frame= 1569 fps= 25 q=28.0 size=    1792KiB time=00:01:02.80 bitrate= 233.8kbits/s dup=0 drop=2 speed=0.987x elapsed=0:01:03.59    frame= 1581 fps= 25 q=28.0 size=    1792KiB time=00:01:03.24 bitrate= 232.1kbits/s dup=0 drop=2 speed=0.987x elapsed=0:01:04.09    frame= 1594 fps= 25 q=28.0 size=    1792KiB time=00:01:03.76 bitrate= 230.2kbits/s dup=0 drop=2 speed=0.987x elapsed=0:01:04.59    frame= 1606 fps= 25 q=28.0 size=    1792KiB time=00:01:04.24 bitrate= 228.5kbits/s dup=0 drop=2 speed=0.987x elapsed=0:01:05.09    frame= 1619 fps= 25 q=28.0 size=    1792KiB time=00:01:04.80 bitrate= 226.5kbits/s dup=0 drop=2 speed=0.988x elapsed=0:01:05.59    frame= 1631 fps= 25 q=28.0 size=    2048KiB time=00:01:05.28 bitrate= 257.0kbits/s dup=0 drop=2 speed=0.988x elapsed=0:01:06.10    frame= 1644 fps= 25 q=28.0 size=    2048KiB time=00:01:05.76 bitrate= 255.1kbits/s dup=0 drop=2 speed=0.987x elapsed=0:01:06.60    [out#0/matroska @ 0x564c278ab500] video:2094KiB audio:0KiB subtitle:0KiB other streams:0KiB global headers:0KiB muxing overhead: 0.593346%
frame= 1677 fps= 25 q=-1.0 Lsize=    2106KiB time=00:01:07.12 bitrate= 257.1kbits/s dup=0 drop=2 speed=0.998x elapsed=0:01:07.28    
[libx264 @ 0x564c278acf00] frame I:7     Avg QP:11.87  size:117107
[libx264 @ 0x564c278acf00] frame P:422   Avg QP:17.33  size:  1724
[libx264 @ 0x564c278acf00] frame B:1248  Avg QP:24.82  size:   477
[libx264 @ 0x564c278acf00] consecutive B-frames:  0.7%  0.1%  0.2% 99.0%
[libx264 @ 0x564c278acf00] mb I  I16..4: 88.9%  1.8%  9.3%
[libx264 @ 0x564c278acf00] mb P  I16..4:  0.2%  0.1%  0.0%  P16..4:  0.3%  0.2%  0.1%  0.0%  0.0%    skip:99.1%
[libx264 @ 0x564c278acf00] mb B  I16..4:  0.0%  0.0%  0.0%  B16..8:  0.3%  0.1%  0.0%  direct: 0.0%  skip:99.6%  L0:46.0% L1:47.0% BI: 7.0%
[libx264 @ 0x564c278acf00] 8x8 transform intra:4.3% inter:2.1%
[libx264 @ 0x564c278acf00] coded y,uvDC,uvAC intra: 14.7% 20.8% 17.0% inter: 0.1% 0.1% 0.0%
[libx264 @ 0x564c278acf00] i16 v,h,dc,p: 69% 29%  2%  0%
[libx264 @ 0x564c278acf00] i8 v,h,dc,ddl,ddr,vr,hd,vl,hu: 13% 20% 61%  1%  1%  3%  0%  0%  1%
[libx264 @ 0x564c278acf00] i4 v,h,dc,ddl,ddr,vr,hd,vl,hu: 33% 27% 21%  2%  2%  5%  2%  4%  2%
[libx264 @ 0x564c278acf00] i8c dc,h,v,p: 61% 30%  9%  0%
[libx264 @ 0x564c278acf00] Weighted P-Frames: Y:0.0% UV:0.0%
[libx264 @ 0x564c278acf00] kb/s:255.15
Exiting normally, received signal 2.
